<?xml version="1.0" encoding="utf-8" ?>
<svg xmlns="http://www.w3.org/2000/svg" xmlns:xlink="http://www.w3.org/1999/xlink" width="1024" height="1820">
	<path fill="#35364C" d="M0 0L39.9844 0L96.1722 0L110.979 0L150.466 0L192.745 0L196.231 0L208.08 0L389.806 0L439.582 0L603.747 0L642.958 0L681.002 0L746.06 0L1024 0L1024 264.077L1024 267.595L1024 539.108L1024 553.341L1024 592.458L1024 606.162L1024 651.046L1024 677.441L1024 691.229L1024 705.386L1024 752.583L1024 765.822L1024 821.636L1024 834.548L1024 874.33L1024 882.079L1024 894.594L1024 926.378L1024 1021.37L1024 1037.83L1024 1079.49L1024 1084.92L1024 1415.43L1024 1507.01L1024 1562.78L1024 1629.65L1024 1691.66L1024 1740.59L1024 1790.39L1024 1819.25L1022.13 1819.29C1015.91 1821.15 750.038 1820.4 745.648 1819.08C740.925 1820.93 732.742 1820.55 728.012 1818.96C725.93 1819.58 724.771 1819.59 722.691 1818.96C722.516 1819.02 722.344 1819.09 722.168 1819.16C716.563 1821.08 685.939 1821.1 680.875 1818.72C680.359 1818.98 680.344 1819 679.731 1819.25C675.223 1821.06 649.248 1820.84 644.321 1818.87C639.36 1821.2 612.012 1820.92 606.111 1819C605.848 1819.11 605.588 1819.23 605.321 1819.33C600.876 1821.07 455.016 1820.68 439.71 1819.9C438.205 1819.82 436.883 1819.42 435.501 1818.83C435.331 1818.9 435.164 1818.98 434.992 1819.05C429.74 1821.13 398.735 1821.03 393.661 1818.72C393.206 1818.92 392.756 1819.13 392.288 1819.3C387.096 1821.14 230.399 1820.56 212.811 1819.93C211.064 1819.87 209.674 1819.55 208.059 1818.85C207.782 1818.98 207.51 1819.11 207.23 1819.23C203.187 1820.94 155.856 1820.92 151.077 1818.76C150.906 1818.84 150.738 1818.92 150.565 1818.99C145.667 1821.03 116.29 1821.09 111.036 1818.78C107.599 1820.44 104.794 1819.98 101.206 1819.35L99.5907 1819.35L95.9855 1818.79C95.5943 1819 95.4588 1819.08 95.0095 1819.25C90.6755 1820.93 43.9178 1820.96 39.2086 1818.78C38.5125 1819.13 37.7807 1819.46 37.0161 1819.63C31.2562 1820.94 4.40884 1821.21 0 1818.44L0 1791.2L0 1741.37L0 1691.78L0 1631.18L0 1603.94L0 1602.28L0 1563.13L0 1508.52L0 1489.2L0 1481.18L0 1448.39L0 1441.37L0 1416.32L0 1040.55L0 1022.61L0 927.693L0 904.674L0 903.438L0 894.571L0 882.1L0 874.263L0 834.554L0 820.499L0 766.754L0 752.642L0 705.459L0 691.01L0 676.471L0 649.623L0 606.084L0 591.898L0 552.907L0 538.659L0 5.40956L0 0Z"/>
	<path fill="#AC919C" d="M517.467 610.68C512.286 584.041 502.714 558.226 492.562 533.114C449.926 426.522 377.169 334.647 283.174 268.706C282.314 268.107 281.391 267.6 280.461 267.119C279.169 267.814 278.607 268.925 277.852 270.126C274.65 267.591 274.095 257.871 273.621 253.782C270.937 230.653 277.517 209.869 292.008 191.757C308.558 171.074 331.468 157.429 357.615 153.303C332.192 169.572 310.411 189.9 294.521 215.748C291.729 220.291 288.055 225.564 286.888 230.815C286.632 231.963 286.505 233.096 286.522 234.27C290.861 230.945 298.206 214.574 302.243 208.883C317.058 188.002 335.922 170.891 356.974 156.518C351.355 203.256 312.081 225.772 285.404 260.172C301.208 271.615 317.039 283.01 331.858 295.725C437.482 386.355 512.747 512.124 534.883 650.274C556.031 782.254 540.54 922.992 484.648 1045.03C465.799 1085.45 442.967 1123.9 416.49 1159.8C334.718 1272.59 200.371 1363.01 61.7345 1384.94C57.1307 1385.67 52.3143 1386.59 47.6674 1385.82L46.3405 1384.73C46.4363 1382.58 46.6798 1381.84 48.4546 1380.34C50.875 1378.28 79.0932 1373.8 84.8746 1372.48C100.165 1368.98 159.972 1353.32 168.857 1344.86C161.589 1334.44 143.818 1303.09 139.816 1291.6C131.409 1300.27 56.8079 1322 43.426 1322.05C42.2498 1322.05 41.1681 1321.84 40.0679 1321.44L39.5158 1320.3C40.9069 1317.18 44.1748 1315.2 47.273 1314C53.3112 1311.67 60.6792 1310.9 67.037 1309.33C79.0001 1306.37 130.136 1293.43 136.413 1285.59C131.561 1281.29 96.2623 1225.38 94.3326 1219.21C86.5285 1226.75 35.7873 1239.95 23.3816 1239.86C21.45 1239.85 19.852 1239.57 18.1252 1238.64L17.6689 1237.18C20.0914 1233.37 25.9515 1232.07 30.1001 1231.16C42.2889 1228.5 83.2071 1221.7 89.9054 1213.05C62.2619 1175.82 37.9926 1123.36 18.4866 1081.1C12.2671 1067.63 6.81787 1053.74 0 1040.55L0 1022.61L0 927.693L0 904.674L0 903.438L0 894.571L0 882.1L0 874.263L0 834.554L0 820.499L0 766.754L0 752.642L0 705.459L0 691.01L0 676.471L0 649.623L0 606.084L0 591.898L0 552.907L0 538.659C17.1726 508.801 34.2852 478.545 49.6376 447.704C59.0493 428.798 67.3646 409.306 76.3172 390.175C64.2931 386.141 52.3259 383.356 39.8267 381.226C34.1259 380.255 26.6779 380.095 21.3216 378.313C20.4233 378.015 19.7423 377.531 19.0466 376.912C18.4931 374.741 18.404 374.636 19.3449 372.623C27.2975 368.868 69.4006 380.917 78.8257 383.791C88.794 359.128 97.9559 334.659 106.059 309.308C95.3137 305.802 54.7403 297.074 49.0994 291.322C60.0832 285.933 106.364 301.4 119.783 305.991C243.152 347.962 344.842 437.125 402.562 553.934C441.417 633.379 459.798 713.235 459.675 801.574C459.64 826.716 458.639 854.731 453.081 879.313C476.045 886.92 499.571 893.107 522.383 901.082C546.8 776.797 536.412 664.528 484.659 548.393C469.168 512.837 450.489 478.755 428.851 446.565C380.625 374.754 319.694 312.632 244.516 269.07C201.989 244.427 160.532 227.613 113.724 212.965C106.971 210.852 80.5917 206.236 77.602 201.432C78.7666 199.711 79.3352 199.481 81.4073 199.033C88.3455 197.532 99.0377 201.908 105.916 203.536C167.186 218.489 225.239 244.414 277.264 280.057C344.728 325.954 397.727 383.553 442.177 451.735C455.159 471.648 467.912 492.064 478.43 513.407C494.055 545.111 505.784 577.407 517.467 610.68Z"/>
	<path fill="#35364C" d="M0 903.438L10.6355 897.55C41.269 921.456 71.0592 947.156 100.058 973.052C121.078 991.823 141.196 1011.54 161.842 1030.71C176.044 1043.9 190.704 1056.52 205.096 1069.49C213.707 1077.25 240.761 1103.39 249.617 1106.7C242.471 1106.52 222.818 1090.52 215.762 1086.01C192.938 1071.42 169.417 1057.91 146.828 1042.95C129.226 1031.29 112.194 1018.48 94.9671 1006.25C67.8197 987.093 40.8402 967.703 14.0317 948.078C8.60774 933.836 5.08752 919.014 0 904.674L0 903.438Z"/>
	<path fill="#35364C" d="M182.134 445.571C178.018 454.453 172.518 462.769 167.541 471.189L145.718 508.298L60.8752 651.262C50.0481 669.502 37.0118 687.247 27.3255 706.03C18.4961 700.381 9.48389 695.47 0 691.01L0 676.471C5.83937 663.557 37.8454 627.376 48.695 613.73C93.6408 558.048 138.122 501.993 182.134 445.571Z"/>
	<path fill="#35364C" d="M0 705.459C24.3763 724.62 41.3574 748.947 45.1333 780.35C48.1342 805.309 41.7222 831.644 25.9811 851.466C18.7551 860.558 9.95519 868.28 0 874.263L0 834.554L0 820.499L0 766.754L0 752.642L0 705.459Z"/>
	<path fill="#AC919C" d="M0 752.642C11.2256 771.474 15.9595 789.872 10.4314 811.474C8.30998 819.763 4.66472 827.4 0 834.554L0 820.499L0 766.754L0 752.642Z"/>
	<path fill="#35364C" d="M0 766.754C7.05687 780.671 8.11417 797.692 3.23685 812.504C2.33973 815.229 1.40696 817.99 0 820.499L0 766.754Z"/>
	<path fill="#35364C" d="M0 927.693C12.8239 968.084 26.3253 1008.26 40.4983 1048.2C53.4136 1084.23 67.4663 1119.86 79.926 1156.05C82.2786 1162.88 101.51 1206 101.526 1208.19C101.533 1209.09 101.249 1210.01 100.966 1210.86L99.4055 1212C95.959 1211.15 94.7983 1208.51 93.0276 1205.59C86.8734 1195.43 80.1918 1185.36 74.3372 1175.05C58.8055 1147.71 44.9374 1119.04 31.54 1090.6L11.194 1046.38C7.60005 1038.51 4.32684 1030.1 0 1022.61L0 927.693Z"/>
	<path fill="#35364C" d="M0 552.907C17.6384 521.007 36.4287 489.562 53.3274 457.282C56.1944 451.805 66.5434 426.326 69.5593 423.919C66.0181 444.213 54.4706 468.683 46.7032 487.832C36.4632 513.076 25.8944 538.003 14.3293 562.673C9.77017 572.398 5.43721 582.648 0 591.898L0 552.907Z"/>
	<path fill="#35364C" d="M28.3245 720.605C47.7113 738.719 59.0252 765.041 59.9266 791.509C60.971 822.177 49.7297 850.679 28.8424 873.029C20.4301 882.031 10.7728 888.708 0 894.571L0 882.1C23.866 868.246 42.5023 847.159 49.5992 820.082C57.8697 788.528 50.3517 757.802 34.1131 730.263C32.2031 727.032 30.2735 723.813 28.3245 720.605Z"/>
	<path fill="#35364C" d="M0 606.084C13.0586 583.099 23.8514 559.521 34.2751 535.247C37.9709 526.64 41.0435 517.774 44.9662 509.268C45.4103 515.182 5.71604 634.357 0 649.623L0 606.084Z"/>
	<path fill="#35364C" d="M193.966 448.998C215.787 459.113 263.116 511.49 278.898 532.334C346.86 622.822 376.788 736.268 362.303 848.495C351.199 845.111 340.285 840.348 329.376 836.309C311.965 829.976 294.509 823.77 277.007 817.691C226.138 798.366 174.243 781.792 123.354 762.466C106.785 756.174 90.0862 750.306 73.9502 742.951L152.042 554.59C166.428 519.57 181.706 484.842 193.966 448.998Z"/>
	<path fill="#35364C" d="M54.3425 859.521C155.439 867.466 256.646 873.94 357.931 878.941C357.807 879.78 357.665 880.617 357.507 881.45C348.576 928.762 333.376 972.804 311.771 1015.79C309.012 1021.28 304.452 1032.65 299.659 1035.91C299.575 1036.29 299.483 1036.67 299.372 1037.04C296.956 1045.08 264.638 1089.59 258.056 1093.31C257.912 1093.27 257.763 1093.25 257.624 1093.2C248.751 1090.03 61.228 875.655 54.3425 859.521Z"/>
	<path fill="#35364C" d="M452.15 887.083C474.168 895.496 497.895 900.971 520.519 907.572C514.411 937.655 506.193 967.271 495.925 996.2C473.219 1059.57 439.412 1116.96 398.799 1170.36C393.865 1176.84 383.881 1192.09 377.335 1195.18C375.212 1198.98 370.171 1205 366.196 1206.86C363.064 1206.01 322.083 1166.2 319.213 1161.63C319.93 1161.41 320.48 1161.26 321.082 1160.79C331.089 1152.97 341.358 1137.03 349.098 1126.68C401.853 1056.05 437.163 973.951 452.15 887.083Z"/>
	<path fill="#35364C" d="M17.7154 960.352C24.8044 963.891 31.8857 969.803 38.4152 974.335C59.2286 988.783 79.3805 1004.06 99.9646 1018.81C136.873 1045.26 174.907 1069.55 213.285 1093.78C219.402 1097.64 235.29 1109.91 241.941 1110.91C241.764 1111.25 241.595 1111.59 241.409 1111.93C237.128 1119.61 200.891 1153.25 192.462 1155.58C192.251 1155.91 191.933 1156.44 191.66 1156.76C182.113 1167.89 120.74 1204.38 108.985 1205.24C98.9027 1197.84 27.8741 989.408 17.7154 960.352Z"/>
	<path fill="#35364C" d="M396.214 562.249C396.34 562.404 396.468 562.557 396.592 562.714C406.957 575.943 412.906 595.574 418.756 611.326C452.262 701.546 456.752 782.601 446.301 877.569C426.036 871.449 405.937 864.215 385.995 857.123C380.433 855.1 374.9 852.995 369.399 850.81C382.286 764.798 365.818 681.403 330.134 602.882C333.142 606.064 336.273 609.132 340.087 611.341C349.019 616.566 359.654 618.051 369.675 615.472C379.95 612.725 389.23 605.57 394.375 596.248C400.775 584.652 399.692 574.369 396.214 562.249Z"/>
	<path fill="#35364C" d="M86.6082 392.803C96.2318 397.171 106.328 400.709 116.064 404.871C137.692 414.116 159.33 425.131 178.748 438.411C137.932 492.901 94.3116 545.613 51.6599 598.68C37.156 616.902 22.479 634.987 7.63098 652.93C37.3026 567.258 59.5819 479.324 86.6082 392.803Z"/>
	<path fill="#35364C" d="M314.012 1168.21C324.904 1175.14 351.433 1208.48 361.389 1211.8C356.794 1221.42 328.291 1245.28 319.28 1253.18C285.436 1282.86 246.522 1308.61 206.366 1328.88C201.896 1331.14 193.585 1336.45 188.883 1336.14C188.736 1336.31 188.594 1336.48 188.443 1336.64C185.632 1339.61 177.852 1342.72 173.875 1342.77C171.844 1341.29 149.206 1293.98 147.112 1288.39C148.205 1288.69 148.966 1288.62 150.037 1288.33C158.872 1285.94 167.829 1280.81 175.952 1276.55C219.539 1253.33 259.576 1223.99 294.844 1189.42C301.419 1183.03 309.345 1176.06 314.012 1168.21Z"/>
	<path fill="#35364C" d="M364.826 879.503C391.427 879.86 418.46 882.71 444.825 886.224C435.642 927.868 425.312 967.65 409.257 1007.31C406.473 1014.18 402.56 1025.23 397.718 1030.73C397.089 1027.95 397.461 1024.48 397.281 1021.59C396.704 1012.33 392.865 1003.86 386.574 997.015C379.942 989.764 370.704 985.44 360.887 984.992C348.294 984.464 338.681 989.437 329.61 997.616C333.808 983.824 340.018 970.232 345.106 956.71C354.336 932.186 361.842 905.576 364.826 879.503Z"/>
	<path fill="#35364C" d="M114.361 311.633C152.215 326.023 187.092 341.199 221.693 362.542C213.68 379.148 201.698 411.343 191.616 424.64C189.187 427.234 186.352 429.486 183.652 431.796C153.081 413.968 122.461 398.396 88.9038 386.86C97.6577 361.876 106.144 336.799 114.361 311.633Z"/>
	<path fill="#35364C" d="M57.7238 748.544C94.1989 757.794 130.312 773.383 165.633 786.405C179.857 791.65 194.299 796.269 208.544 801.457C253.305 818.024 298.293 833.969 343.498 849.285C348.328 850.875 358.782 853.351 361.082 857.878C354.616 857.784 346.963 855.078 340.547 853.755C324.471 850.423 308.363 847.246 292.225 844.226C249.895 836.341 207.27 829.636 165.032 821.352C152.111 818.818 139.317 815.451 126.425 812.718C106.534 808.5 86.3464 804.77 66.7149 799.48C66.9742 781.033 64.2264 765.829 57.7238 748.544Z"/>
	<path fill="#35364C" d="M66.8418 806.817C87.3081 813.647 110.106 816.342 131.223 821.024C199.727 836.212 269.034 847.514 337.812 861.506C358.474 865.71 379.291 869.006 399.734 874.228C395.649 874.436 391.829 874.217 387.767 873.753C306.185 865.877 223.91 863.349 142.1 858.278C112.81 856.462 83.1032 855.385 53.9621 852.063C60.9439 837.747 65.9883 822.8 66.8418 806.817Z"/>
	<path fill="#35364C" d="M303.948 429.088C312.894 439.739 322.61 449.737 331.526 460.436C356.153 489.512 377.276 521.381 394.462 555.386C392.539 553.586 390.653 551.747 388.653 550.032C379.749 542.394 367.703 537.788 355.93 538.91C343.938 540.053 335.584 546.539 328.13 555.557C322.649 564.442 321.002 572.564 320.115 582.77C302.216 548.064 278.187 517.85 251.832 489.249C258.268 490.352 264.141 490.639 270.571 489.211C282.484 486.604 292.851 479.325 299.349 469.008C307.027 456.743 307.049 442.723 303.948 429.088Z"/>
	<path fill="#35364C" d="M320.41 1015.51C321.506 1019.62 320.422 1025.37 321.12 1029.88C322.761 1040.25 328.475 1049.54 336.993 1055.69C345.472 1061.79 356.055 1064.22 366.349 1062.43C376.15 1060.67 384.172 1054.91 389.721 1046.78C384.84 1061.69 340.787 1131.14 329.333 1138.94C327.066 1143.75 319.34 1153.86 314.71 1156.33C313.971 1156.22 313.934 1156.25 313.137 1155.89C305.527 1152.41 266.202 1105.65 262.486 1097.43C262.66 1097.4 262.839 1097.41 263.009 1097.36C274.907 1094.16 312.898 1029.48 320.41 1015.51Z"/>
	<path fill="#35364C" d="M193.892 1163.89C195.636 1168.47 189.376 1182.86 198.37 1200.58C204.501 1212.76 215.371 1221.88 228.43 1225.81C231.658 1226.8 235.575 1227.84 238.731 1226.2C237.472 1228.3 235.972 1229.7 234.054 1231.19C223.73 1239.25 163.769 1278.79 154.171 1277.58C154.014 1277.74 153.86 1277.91 153.699 1278.07C150.943 1280.78 147.749 1282.41 143.819 1282.44C141.618 1280.61 113.633 1218.07 111.443 1211.53C111.697 1211.54 111.95 1211.57 112.203 1211.58C125.269 1212.29 183.638 1173.47 193.892 1163.89Z"/>
	<path fill="#35364C" d="M247.199 1116.38C261.761 1121.3 301.232 1160.12 309.338 1161.77C308.907 1162.63 308.429 1163.47 307.908 1164.28C302.566 1172.38 263.619 1211.7 256.117 1213.33C253.793 1216.77 249.788 1218.4 245.932 1219.45C237.71 1221.68 229.661 1219.62 222.42 1215.36C212.387 1209.47 204.28 1199.28 201.495 1187.91C192.08 1149.49 232.47 1141.74 246.881 1116.96C246.992 1116.77 247.093 1116.57 247.199 1116.38Z"/>
	<path fill="#35364C" d="M182.762 458.386C183.113 465.504 79.3139 706.117 67.3739 741.671C61.9316 740.142 56.3589 739.344 50.7864 738.45L45.3123 729.157C41.6431 722.817 36.6945 717.81 31.5537 712.682L109.011 584.739C134.249 542.95 159.554 501.362 182.762 458.386Z"/>
	<path fill="#35364C" d="M46.3824 861.551C55.952 871.852 64.1235 884.661 73.0763 895.647C94.8688 922.268 117.036 948.58 139.57 974.576L183.103 1023.42C193.245 1035 202.946 1047.05 213.409 1058.33C223.083 1068.75 232.66 1079.32 242.524 1089.56C248.48 1095.74 256.825 1102.49 261.427 1109.64C256.208 1106.45 249.715 1100.87 246.17 1095.89C246.037 1095.7 245.909 1095.51 245.778 1095.32C238.727 1093.64 52.1333 916.147 16.4116 893.897C28.8298 884.786 39.1081 875.285 46.3824 861.551Z"/>
	<path fill="#35364C" d="M250.189 404.748C271.809 400.168 293.064 413.925 297.733 435.522C302.403 457.118 288.728 478.424 267.146 483.18C245.439 487.964 223.977 474.196 219.281 452.475C214.585 430.754 228.443 409.354 250.189 404.748Z"/>
	<path fill="#35364C" d="M359.547 546.107C376.877 545.948 391.145 559.69 391.633 577.01C392.12 594.33 378.648 608.852 361.336 609.668C349.842 610.209 338.952 604.502 332.858 594.743C326.765 584.984 326.419 572.696 331.954 562.61C337.488 552.524 348.04 546.213 359.547 546.107Z"/>
	<path fill="#35364C" d="M353.706 992.681C371.008 989.662 387.452 1001.33 390.314 1018.65C393.175 1035.98 381.356 1052.31 364.002 1055.01C346.87 1057.68 330.787 1046.05 327.962 1028.95C325.137 1011.84 336.625 995.661 353.706 992.681Z"/>
	<path fill="#35364C" d="M228.313 366.889C242.372 376.468 257.094 386.535 269.577 398.12C258.601 396.382 247.629 396.759 237.338 401.374C226.706 406.142 218.125 414.458 213.93 425.392C211.449 434.718 211.141 442.734 211.724 452.309C206.311 448.598 201.14 444.756 196.063 440.596C200.545 431.081 203.957 420.972 208.154 411.31C214.632 396.398 221.848 381.816 228.313 366.889Z"/>
	<path fill="#AC919C" d="M837.17 947.53C836.89 937.208 834.614 927.09 833.127 916.896C831.596 906.276 830.735 895.57 830.549 884.841C830.043 859.94 834.53 835.684 837.764 811.115C840.445 790.756 842.389 770.261 845.716 749.994C846.605 744.579 846.51 740.149 851.231 736.764C852.498 736.515 853.732 736.348 854.961 736.858C858.509 738.329 861.7 742.708 863.793 745.761C879.96 769.337 874.104 796.865 876.99 823.457C878.194 834.547 880.715 845.277 885.558 855.371C896.084 877.314 915.621 893.134 938.376 901.122C967.66 911.403 996.451 907.731 1024 894.594L1024 926.378L1024 1021.37L1024 1037.83L1024 1079.49L1024 1084.92C1017.97 1083.06 950.556 986.879 939.758 972.047C931.176 960.258 921.423 948.996 913.655 936.665C901.198 916.89 886.49 893.683 880.146 871.172C875.991 856.43 871.669 836.803 870.185 821.593C867.433 793.385 873.518 767.461 853.609 743.827C850.736 766.684 847.653 789.514 844.36 812.315C841.407 833.221 838.169 854.119 837.526 875.257C837.096 886.035 837.673 896.83 839.25 907.5C840.999 920.131 844.922 934.494 843.491 947.171C843.132 950.356 841.551 953.347 840.165 956.194C841.26 958.021 842.425 959.805 843.657 961.542C865.908 992.835 896.554 1015.1 934.8 1021.4C925.17 1036.53 914.455 1052.01 908.128 1068.9C905.868 1074.93 904.759 1081.4 902.937 1087.58C901.385 1092.84 897.82 1101.96 892.815 1104.71C882.997 1106.96 867.632 1102.17 858.318 1098.76C821.468 1085.26 794.754 1056.9 778.419 1021.9C794.27 995.647 823.903 975.009 837.17 947.53Z"/>
	<path fill="#35364C" d="M905.971 891.65C925.572 905.963 946.32 913.503 970.699 914.622C976.632 929.539 1018.7 1034.26 1024 1037.83L1024 1079.49C1021.59 1078.48 951.958 976.492 944.174 963.461C930.383 940.371 917.191 916.098 905.971 891.65Z"/>
	<path fill="#35364C" d="M1017.36 905.909L1024 926.378L1024 1021.37C1019.12 1013.46 1015.63 1003.17 1011.79 994.592C999.897 968.056 988.957 941.437 978.543 914.296C992.228 913.175 1004.38 910.42 1017.36 905.909Z"/>
	<path fill="#35364C" d="M797.902 1007.41C803.106 1010.91 808.102 1019.61 812.099 1024.65C826.652 1042.99 844.109 1057.77 865.448 1067.63C872.659 1070.96 891.051 1079.38 898.442 1076.64C897.138 1082.28 895.177 1090.8 891.444 1095.26C889.958 1097.04 889.743 1096.98 887.561 1097.19C880.881 1100.07 865.395 1093.59 858.862 1091.12C825.646 1078.54 800.785 1053.32 786.241 1021.31C789.831 1016.37 793.795 1011.92 797.902 1007.41Z"/>
	<path fill="#35364C" d="M818.549 985.142C820.761 986.046 829.741 999.921 831.951 1002.69C842.191 1015.68 854.581 1026.83 868.583 1035.64C877.532 1041.16 899.036 1051.67 908.905 1049.35C907.05 1054.15 902.979 1068.32 898.772 1070.53L896.466 1069.13C894.991 1069.55 893.616 1069.62 892.107 1069.38C886.382 1068.46 880.563 1066 875.172 1063.93C843.135 1051.65 823.261 1028.39 803.94 1001.1L818.549 985.142Z"/>
	<path fill="#35364C" d="M836.149 962.61C839.944 966.527 843.211 972.516 846.652 976.978C856.419 989.646 868.233 999.562 881.76 1008.04C890.171 1013.32 913.996 1026.95 924.085 1024.66C923.742 1025.63 923.375 1026.49 922.883 1027.39C920.72 1031.37 915.601 1042 911.588 1043.18C910.15 1043.65 909.147 1043.69 907.644 1043.48C871.051 1038.41 843.89 1006.72 822.998 979.254C827.464 973.777 831.777 968.162 836.149 962.61Z"/>
	<path fill="#35364C" d="M889.412 876.008C899.535 883.584 913.963 915.982 918.359 928.846C908.262 918.894 894.128 889.87 889.412 876.008Z"/>
	<path fill="#AC919C" d="M728.586 1218.88C728.763 1219.04 728.937 1219.21 729.117 1219.37C735.543 1225.03 746.555 1227.75 754.232 1231.85C784.509 1248.04 797.437 1276.45 800.215 1309.41C800.67 1314.81 800.858 1320.12 800.601 1325.54C796.028 1318.15 793.787 1307.77 790.876 1299.53C784.86 1282.51 776.117 1265.83 763.995 1252.33C761.094 1249.1 757.611 1246.51 754.673 1243.35C754.744 1243.53 754.809 1243.72 754.886 1243.89C757.37 1249.7 763.572 1254.5 767.265 1259.73C774.965 1270.63 781.011 1282.93 785.904 1295.31C818.123 1376.84 821.922 1466.71 807.745 1552.55C804.561 1571.83 800.873 1593.36 794.048 1611.69C793.826 1612.29 793.522 1612.74 793.172 1613.26C798.053 1613.31 807.753 1606.02 812.251 1603.44C829.411 1593.61 865.184 1583.44 877.317 1571.21C878.108 1570.41 877.835 1570.76 878.357 1569.77L875.933 1568.52L877.602 1570.84L877.337 1571.07C876.758 1570.91 876.201 1570.56 875.602 1570.59C872.949 1570.74 859.869 1578.52 856.438 1580.12C846.206 1584.91 835.44 1588.5 825.197 1593.26C818.294 1596.47 811.397 1601.24 804.381 1603.88C803.395 1604.25 802.333 1604.23 801.299 1604.12C801.413 1604.01 801.53 1603.9 801.642 1603.79C808.786 1596.51 811.162 1587.2 820.227 1580.44C834.846 1569.54 852.509 1563.26 868.743 1555.24C894.054 1542.75 938.815 1515.54 949.085 1487.46C945.809 1524.59 926.708 1561.89 898.046 1585.77C874.914 1605.05 845.716 1612.04 816.62 1616.72C809.883 1617.81 801.628 1619.78 794.908 1619.28C794.017 1619.21 793.128 1618.92 792.293 1618.62C781.515 1656.65 749.671 1722.7 724.632 1752.17C709.305 1770.21 690.82 1785.29 671.942 1799.43C663.494 1805.75 655.117 1813.19 645.811 1818.2C645.083 1818.59 644.987 1818.61 644.321 1818.87C639.36 1821.2 612.012 1820.92 606.111 1819C632.109 1810.91 664.126 1790.39 684.833 1772.44C695.31 1763.35 704.593 1753.38 713.768 1743.02C719.502 1736.55 726.175 1729.74 730.257 1722.07C735.676 1711.89 734.044 1699.44 739.035 1689.07C739.559 1695.38 739.758 1701.38 738.843 1707.68C742.684 1705.45 746.519 1698.01 748.755 1694.11C766.826 1662.67 778.248 1628.1 787.489 1593.21C807.293 1518.43 812.621 1427.08 793.785 1351.44C790.209 1337.08 784.789 1323.36 779.675 1309.5C773.827 1293.66 768.167 1278.05 759.617 1263.41C758.73 1261.89 757.837 1260.42 757.076 1258.83C757.521 1261.79 781.128 1322.03 782.429 1323.78C778.176 1322.68 773.296 1315.46 771.137 1311.85C760.079 1293.38 756.551 1271.22 747.703 1251.75C742.812 1240.98 731.744 1228.48 728.586 1218.88Z"/>
	<path fill="#35364C" d="M1024 821.636C1017.87 832.189 1011.09 841.192 1000.71 848.007C986.407 857.409 968.895 860.59 952.199 856.817C935.291 853.004 920.618 842.573 911.463 827.858C902.432 813.461 899.837 795.116 903.877 778.644C907.98 761.915 918.831 746.616 933.68 737.824C948.296 729.039 965.844 726.535 982.335 730.881C1001.74 736.097 1014.37 748.923 1024 765.822L1024 821.636Z"/>
	<path fill="#AC919C" d="M0 0L39.9844 0L96.1722 0L110.979 0L150.466 0L192.745 0C184.802 15.4958 176.308 26.5058 163.407 38.1672C157.263 43.7207 150.849 49.0822 145.532 55.4599C140.063 62.0202 137.967 70.9364 132.854 77.5629C128.595 87.0236 123.003 95.8257 116.248 103.701C112.857 107.932 109.28 111.723 105.426 115.523C100.654 140.205 91.4083 162.56 76.7701 182.952C85.2951 160.401 92.5856 138.44 98.0301 114.914C94.9542 106.831 91.5751 98.8795 86.8855 91.5807C76.8098 75.8988 40.8625 33.3367 24.6181 25.5237C32.0334 34.4213 40.9203 42.6242 48.8843 51.0728C60.1555 63.236 71.2862 75.5285 82.2741 87.948C43.7323 72.1206 18.3731 41.6646 0 5.40956L0 0Z"/>
	<path fill="#35364C" d="M39.9844 0L96.1722 0C98.1138 3.69507 100.325 7.81199 101.171 11.919C104.993 30.4664 103.37 87.1987 99.0575 106.212C90.9549 82.7613 59.6027 42.1648 42.6887 23.071C37.981 17.7566 32.7045 13.0304 27.7623 7.94673L28.2725 6.61297L29.9207 6.59722C47.1826 16.5908 75.6511 62.5953 87.8898 80.5068C81.914 46.9034 64.0655 23.3822 39.9844 0Z"/>
	<path fill="#35364C" d="M110.979 0L150.466 0C135.258 22.5283 126.037 43.0356 123.724 70.4593C123.377 74.5749 122.174 80.7656 123.083 84.7238C123.154 85.0317 123.239 85.3359 123.318 85.642C121.559 90.9459 115.759 96.961 112.306 101.433L106.317 109.571C116.213 74.9279 113.089 35.5901 110.979 0Z"/>
	<path fill="#AC919C" d="M1024 705.386C1009.81 695.111 989.491 687.301 971.906 686.474C966.518 686.221 953.075 690.391 949.24 688.171C948.746 687.196 948.346 686.234 948.108 685.161C947.382 681.891 948.121 677.548 949.275 674.459C953.471 663.224 961.123 652.468 966.734 641.832C972.168 631.53 977.073 620.966 982.637 610.727C995.749 586.6 1010.01 562.747 1024 539.108L1024 553.341L1024 592.458L1024 606.162L1024 651.046L1024 677.441L1024 691.229L1024 705.386Z"/>
	<path fill="#35364C" d="M980.243 679.777C971.962 679.992 964.204 682.279 956.013 682.723L955.104 681.666C954.808 677.113 955.836 673.627 957.65 669.463C963.454 656.137 972.13 643.395 979.338 630.742C993.915 604.764 1008.8 578.962 1024 553.341L1024 592.458C1017.37 603.83 1010.5 615.328 1004.55 627.062C995.883 644.158 988.313 662.334 980.243 679.777Z"/>
	<path fill="#35364C" d="M1024 606.162L1024 651.046C1020.03 662.542 1016.18 674.078 1012.44 685.653C1004.2 682.611 995.399 681.021 986.788 679.438C1001.53 656.106 1010.03 629.949 1024 606.162Z"/>
	<path fill="#35364C" d="M1024 677.441L1024 691.229C1022.1 690.341 1021.04 689.838 1019.93 688.022C1019.54 684.322 1022.26 680.585 1024 677.441Z"/>
	<path fill="#AC919C" d="M882.641 308.661C884.477 306.674 886.388 304.758 888.37 302.916C921.166 271.972 980.669 262.843 1024 264.077L1024 267.595C995.51 277.249 970.64 296.98 947.29 315.293C924.545 333.131 890.698 342.746 862.083 339.285C877.361 329.634 895.712 321.637 912.581 315.235C920.151 312.362 931.162 310.525 937.737 306.046L937.951 304.601L936.477 304.083C920.638 305.824 873.899 327.192 860.626 338.476C872.823 308.545 907.738 297.407 937.415 293.686C942.715 293.021 952.409 294.346 956.993 292.13L956.708 291.401C956.264 291.228 955.65 290.967 955.164 290.847C934.654 285.777 900.414 299.205 882.641 308.661Z"/>
	<path fill="#35364C" d="M0 1741.37C20.2883 1762.56 52.1963 1770.03 73.6048 1786.86C85.4817 1796.2 88.7227 1811.64 95.9855 1818.79C95.5943 1819 95.4588 1819.08 95.0095 1819.25C90.6755 1820.93 43.9178 1820.96 39.2086 1818.78C38.5125 1819.13 37.7807 1819.46 37.0161 1819.63C31.2562 1820.94 4.40884 1821.21 0 1818.44L0 1791.2L0 1741.37Z"/>
	<path fill="#AC919C" d="M0 1791.2C7.09249 1797.13 15.9647 1801.49 23.5809 1806.86C28.5711 1810.38 33.9772 1816 39.2086 1818.78C38.5125 1819.13 37.7807 1819.46 37.0161 1819.63C31.2562 1820.94 4.40884 1821.21 0 1818.44L0 1791.2Z"/>
	<path fill="#AC919C" d="M681.002 0L746.06 0C747.848 1.68997 749.592 3.42598 751.29 5.20626C764.638 19.3673 772.223 38.0247 771.476 57.5724C770.594 80.6286 757.178 98.3638 741.077 113.501C743.554 77.6908 741.652 54.8539 712.171 30.1963C700.55 20.4757 690.389 11.9955 681.002 0Z"/>
	<path fill="#AC919C" d="M0 1691.78C0.148903 1691.88 0.295284 1691.99 0.446709 1692.09C7.36249 1696.72 17.4972 1698.42 25.2021 1701.92C51.9479 1714.09 75.6664 1737.71 81.9849 1767.05C83.1802 1772.36 83.7072 1777.8 83.5537 1783.24C72.0367 1753.1 59.669 1736.92 29.3514 1723.36C22.469 1720.28 14.8743 1716.95 7.4174 1715.62L7.32304 1716.29C13.7747 1720.57 20.3609 1722.48 27.264 1725.59C43.7688 1733.02 60.992 1744.88 70.9327 1760.3C75.7929 1767.84 77.2404 1777.17 82.0604 1784.44C81.8939 1784.37 81.7244 1784.32 81.561 1784.25C76.7917 1782.15 63.2972 1763.9 57.9211 1758.85C47.048 1748.66 34.6603 1740.82 21.0146 1734.86C16.9953 1733.11 10.7785 1729.73 6.36264 1730.36L6.39119 1731.78C15.9894 1737.05 26.4914 1740.42 36.0669 1745.99C63.1409 1761.73 86.3313 1791.34 99.5907 1819.35L95.9855 1818.79C88.7227 1811.64 85.4817 1796.2 73.6048 1786.86C52.1963 1770.03 20.2883 1762.56 0 1741.37L0 1691.78Z"/>
	<path fill="#AC919C" d="M603.747 0L642.958 0C623.688 11.6751 612.132 14.1044 591.373 20.7699C581.022 24.0934 570.822 27.9301 560.617 31.6775C497.649 54.8016 438.583 84.975 388.554 130.443C378.307 139.756 369.881 150.934 359.894 160.52L359.203 160.227C359.209 157.519 357.566 151.593 358.489 149.568C360.415 145.343 379.351 128.189 383.87 123.802C428.035 80.9237 484.345 46.748 541.15 23.4647C561.714 15.0359 583.774 9.76645 603.747 0Z"/>
	<path fill="#AC919C" d="M389.806 0L439.582 0C463.034 7.34419 484.87 17.32 502.358 35.0227C485.071 30.1848 452.683 16.161 435.92 15.555C433.666 15.4735 429.445 15.5386 427.777 17.1372C452.792 20.8716 475.929 29.7975 500.044 36.8661C497.548 38.2735 494.962 39.4825 492.377 40.7134C484.749 39.0093 442.117 27.3022 438.3 29.2977C446.106 35.4417 479.16 40.386 490.047 42.5554C459.482 52.0632 428.706 31.5089 399.267 25.7275C378.008 21.5528 358.206 22.0978 336.808 24.292C353.149 13.3253 371.192 6.13712 389.806 0Z"/>
	<path fill="#AC919C" d="M101.206 1819.35C99.0828 1804.4 97.9803 1789.37 95.5726 1774.44C88.2484 1729.02 76.8753 1682.17 61.5592 1638.76C56.7632 1625.16 23.9945 1532.35 25.9449 1526.31L27.5171 1525.75C32.1488 1529.35 34.128 1541.82 36.6549 1547.39C70.0506 1621.02 97.3524 1709.24 107.309 1789.48C108.309 1797.54 108.561 1811.66 111.036 1818.78C107.599 1820.44 104.794 1819.98 101.206 1819.35Z"/>
	<path fill="#AC919C" d="M983.824 1391.83C985.813 1393.98 1006.46 1403.54 1011.4 1406.76C1015.01 1409.12 1019.96 1414.58 1024 1415.43L1024 1507.01L1022.57 1506.7C1017.26 1501.37 1013.25 1493.58 1009.54 1487.09C990.886 1454.46 988.068 1428 983.824 1391.83Z"/>
	<path fill="#AC919C" d="M1024 834.548C1020.14 839.575 1016.21 844.087 1011.33 848.159C996.625 860.625 977.493 866.593 958.311 864.694C939.764 862.8 922.736 853.6 910.987 839.129C899.472 824.979 893.613 804.661 895.694 786.591C897.919 767.059 907.772 749.197 923.108 736.893C937.999 725.358 956.891 720.267 975.564 722.756C995.974 725.3 1011.75 736.763 1024 752.583L1024 765.822C1014.37 748.923 1001.74 736.097 982.335 730.881C965.844 726.535 948.296 729.039 933.68 737.824C918.831 746.616 907.98 761.915 903.877 778.644C899.837 795.116 902.432 813.461 911.463 827.858C920.618 842.573 935.291 853.004 952.199 856.817C968.895 860.59 986.407 857.409 1000.71 848.007C1011.09 841.192 1017.87 832.189 1024 821.636L1024 834.548Z"/>
	<path fill="#AC919C" d="M151.077 1818.76C171.425 1796.18 202.648 1763.16 215.355 1735.85C215.44 1750.93 213.91 1808.33 208.059 1818.85C207.782 1818.98 207.51 1819.11 207.23 1819.23C203.187 1820.94 155.856 1820.92 151.077 1818.76Z"/>
	<path fill="#AC919C" d="M968.45 1537.47C974.763 1542.53 998.594 1548.65 1008.87 1555.04C1012.56 1557.33 1019.81 1563.01 1024 1562.78L1024 1629.65L1022.5 1629.39C1008.78 1615.09 1002.55 1588.63 992.379 1571.23C985.494 1559.45 974.295 1549.47 968.45 1537.47Z"/>
	<path fill="#AC919C" d="M196.231 0L208.08 0C205.487 11.7134 202.378 22.7814 196.426 33.2825C182.87 57.3198 160.306 74.978 133.711 82.362C137.797 73.7136 141.787 65.0424 147.725 57.4755C154.514 48.8252 163.407 41.9218 171.467 34.4954C182.215 24.5927 189.526 12.8585 196.231 0Z"/>
	<path fill="#AC919C" d="M0 1563.13C0.123515 1563.28 0.244029 1563.43 0.370544 1563.58C6.59932 1570.83 16.1315 1575.95 22.9873 1582.94C36.1603 1596.36 44.1752 1609.52 50.4886 1627.25C52.6564 1633.34 54.3627 1640.02 57.0778 1645.85C56.94 1645.77 56.7985 1645.68 56.6644 1645.59C51.6091 1642.07 46.8711 1631 43.2931 1625.63C37.0705 1616.3 13.1803 1584.61 3.41281 1581.12L2.83146 1581.73C5.73026 1588.23 14.9231 1594.42 19.7765 1599.93C25.9583 1606.92 31.7929 1614.21 37.2595 1621.78C41.7872 1628.11 50.9168 1646.46 55.8639 1650.11C47.2517 1648.35 9.26653 1603.33 0 1602.28L0 1563.13Z"/>
	<path fill="#AC919C" d="M972.401 1677.32C972.828 1677.76 972.778 1677.74 973.363 1678.19C979.207 1682.7 1017.56 1692.76 1024 1691.66L1024 1740.59C1023.17 1740.65 1022.59 1740.49 1021.85 1740.12C1007.48 1733.04 977.697 1692.12 972.401 1677.32Z"/>
	<path fill="#AC919C" d="M0 1416.32C19.9001 1440.85 33.5485 1469.39 30.1692 1501.67C29.5909 1507.2 28.7826 1515.1 25.5194 1519.62L24.7133 1519.47C20.1853 1492.55 12.8204 1465.68 0 1441.37L0 1416.32Z"/>
	<path fill="#AC919C" d="M0 1603.94C5.77231 1610.08 53.039 1654.65 56.4421 1655.5C50.6315 1658.55 40.6046 1656.11 34.6547 1654.24C21.9013 1650.23 7.82246 1642.25 0 1631.18L0 1603.94Z"/>
	<path fill="#AC919C" d="M925.408 859.215C937.763 868.158 949.486 876.845 964.22 881.516C985.488 888.26 1004.68 884.264 1024 874.33L1024 882.079C1008.59 889.872 992.55 893.675 975.272 891.218C953.187 888.077 938.423 876.569 925.408 859.215Z"/>
	<path fill="#AC919C" d="M0 1448.39C6.76261 1463.95 26.0145 1510.48 22.1119 1524.94L20.8843 1525.21C13.7299 1518.48 4.0823 1491.47 0 1481.18L0 1448.39Z"/>
	<path fill="#AC919C" d="M680.875 1818.72C676.728 1815.43 673.65 1809.06 670.77 1804.61L670.851 1803.73L671.766 1803.83C675.335 1804.19 677.244 1803.97 680.092 1801.55C680.485 1801.21 680.87 1800.87 681.247 1800.51C687.866 1804.77 697.601 1806.88 704.963 1810.12C710.933 1812.75 716.718 1816.57 722.691 1818.96C722.516 1819.02 722.344 1819.09 722.168 1819.16C716.563 1821.08 685.939 1821.1 680.875 1818.72Z"/>
	<path fill="#AC919C" d="M685.807 1799.31C700.39 1801.99 715.191 1801.96 728.919 1808.43C734.459 1811.03 740.186 1817.34 745.648 1819.08C740.925 1820.93 732.742 1820.55 728.012 1818.96C721.577 1815.31 715.162 1811.77 708.404 1808.74C704.064 1806.79 688.192 1802.04 685.807 1799.31Z"/>
	<path fill="#AC919C" d="M1010.49 1781.92C1011.79 1783.85 1013.48 1785.4 1015.3 1786.83C1017.73 1788.75 1020.8 1790.8 1024 1790.39L1024 1819.25L1022.13 1819.29C1015.93 1809.16 1013.15 1793.49 1010.49 1781.92Z"/>
	<path fill="#AC919C" d="M0 1489.2C3.51834 1497.24 10.2996 1517.3 16.855 1522.89C9.41746 1521.77 4.21126 1514.19 0 1508.52L0 1489.2Z"/>
	<path fill="#AC919C" d="M393.661 1818.72C401.145 1818.92 408.792 1817.35 416.461 1817.49C421.739 1817.6 430.793 1819.79 435.501 1818.83C435.331 1818.9 435.164 1818.98 434.992 1819.05C429.74 1821.13 398.735 1821.03 393.661 1818.72Z"/>
	<path fill="#AC919C" d="M900.578 259.115C901.327 252.686 902.087 246.502 904.294 240.367C910.016 224.46 926.861 201.993 938.028 189.138C941.864 184.722 948.574 179.715 951.342 174.832C952.139 173.427 952.052 173.237 951.487 171.776C938.424 176.188 910.16 221.338 903.771 234.476C900.655 240.884 897.166 263.851 896.2 264.948L896.054 264.548L897.109 263.967L895.843 263.559C893.107 235.461 905.613 207.754 923.212 186.392C942.46 163.028 966.433 147.82 993.808 135.656C990.472 172.12 977.732 209.766 948.587 233.86C937.94 242.661 925.799 249.292 915.913 259.078C908.232 266.681 901.611 275.692 894.932 284.177C881.28 301.522 868.346 319.005 855.584 337.009C831.546 370.921 807.565 404.584 785.121 439.588C801.174 433.576 806.157 428.452 818.986 418.126C838.508 402.413 857.997 397.511 882.262 394.25C887.136 393.595 892.003 392.995 896.817 391.965C897.97 391.718 900.023 390.165 900.576 390.203L900.803 390.919L901.256 390.155C895.99 389.023 889.324 390.554 883.996 391.225C864.278 393.71 846.982 395.922 829.943 406.924C818.665 414.206 809.156 423.236 799.646 432.612C817.098 401.358 844.341 382.495 878.616 372.772C909.537 364 941.779 374.117 972.939 365.863C950.676 394.343 899.522 422.858 863.439 427.227C848.624 429.021 832.807 428.447 818.253 431.369C806.388 433.752 795.6 439.507 783.736 441.908C754.727 488.797 728.056 535.147 707.469 586.465C716.97 578.787 726.414 571.769 736.929 565.504C738.712 549.425 749.172 534.965 761.564 525.07C787.134 504.653 810.459 502.949 840.31 493.21C871.634 482.991 901.004 464.566 925.048 442.214C903.16 485.363 874.418 535.071 825.732 551.085C798.798 559.944 762.922 557.72 739.15 569.087C726.19 575.284 716.663 586.801 704.351 593.784C701.39 604.011 697.043 613.875 693.442 623.893C687.906 639.45 682.751 655.141 677.981 670.95C675.721 678.394 672.51 686.98 671.671 694.677C679.69 684.588 688.906 675.764 698.548 667.243C700.066 650.823 714.291 630.256 726.769 619.826C763.805 588.87 840.654 576.781 888.003 570.748C860.246 587.661 856.818 600.447 836.174 622.74C811.621 649.254 774.009 651.603 740.519 657.983C728.681 660.239 716.705 663.429 705.265 667.24L705.795 666.474C730.921 630.654 818.941 642.88 837.829 606.413C833.279 606.863 825.606 615.41 821.341 618.054C816.467 621.076 810.861 623.457 805.482 625.435C776.032 636.265 749.497 633.824 719.516 651.405C716.275 653.305 711.936 655.516 709.524 658.391C706.855 661.573 706.088 665.94 703.507 668.953C701.214 671.631 697.48 673.633 694.843 676.096C687.213 683.273 680.149 691.029 673.715 699.294C666.379 704.511 655.603 769.433 653.648 781.198C653.08 784.617 652.166 788.589 652.913 792.004L653.012 790.78L653.634 790.998L656.415 786.836C660.128 779.14 667.544 774.312 671.605 767.193C675.666 760.072 678.399 752.076 682.301 744.824C697.566 716.453 718.168 698.4 748.567 687.842C779.277 677.177 811.49 672.398 841.939 660.771C832.059 669.952 824.6 681.634 816.406 692.291C801.17 712.103 782.322 732.075 761.432 746.008C743.173 758.186 723.517 763.067 702.227 766.948C693.246 768.585 682.579 769.862 674.42 774.212C667.79 777.747 665.165 786.58 659.235 790.49C657.318 793.735 654.506 796.543 652.772 799.896C648.474 808.206 649.824 830.766 649.734 840.418C648.884 900.578 659.861 960.319 682.042 1016.25C688.324 1032 699.113 1049.21 704.223 1063.66C703.327 1065.7 702.953 1065.99 701.128 1067.31C699.823 1066.85 699.208 1066.1 698.402 1065.04C688.74 1052.42 681.436 1034.17 675.45 1019.5C644.757 943.039 634.423 859.926 645.455 778.279C635.789 756.343 611.221 743.813 596.955 721.067C566.96 673.241 577.611 612.948 589.344 561.273C596.496 581.768 603.364 601.959 612.563 621.679C631.096 661.409 654.053 691.922 649.853 737.997C649.199 745.164 648.679 752.965 646.638 759.85C643.203 736.284 640.905 716.476 629.212 695.166C623.426 684.62 616.759 674.56 611.43 663.764C607.753 656.313 605.18 644.726 600.692 638.506L599.793 639.209C600.144 659.114 624.492 690.571 632.573 709.982C638.224 723.557 640.522 737.532 642.557 751.999C636.691 739.024 630.132 727.2 622.21 715.364C615.896 705.929 608.787 696.69 603.363 686.711C595.397 672.053 593.302 658.761 586.882 644.893C588.898 676.768 606.557 696.938 622.847 722.839C632.558 738.279 640.627 754.175 646.485 771.461L649.045 760.658C653.487 741.315 655.588 721.481 660.506 702.169C665.991 680.635 674.783 658.619 678.854 636.95C681.686 621.876 680.325 595.07 684.023 583.056C683.939 582.855 683.859 582.652 683.771 582.453C678.841 571.24 669.021 560.593 663.498 548.278C643.046 502.675 651.549 449.03 668.517 403.877C671.047 397.144 673.612 390.301 676.598 383.761C681.687 408.667 689.194 432.221 697.045 456.36C712.746 504.64 716.167 527.233 689.091 572.434C689.129 579.084 689.261 586.265 688.075 592.82C688.629 601.785 687.463 611.384 687.126 620.407C699.829 573.278 723.174 527.565 747.458 485.445C755.089 472.209 761.406 454.89 757.277 439.54L756.862 438.727C749.35 429.394 738.439 423.503 731.972 413.146C711.24 379.941 715.686 302.652 723.972 266.059C728.379 287.825 736.589 305.559 749.309 323.658C755.509 332.479 761.984 341.078 766.837 350.744C780.317 377.595 777.762 404.222 768.536 431.844C766.209 437.561 759.953 453.552 761.717 459.222C764.768 457.886 767.426 450.959 768.967 448.049C774.844 438.391 780.995 428.902 787.412 419.594C793.838 410.211 802.156 400.215 806.387 389.659C812.048 375.535 801.858 348.314 799.945 333.05C798.63 322.556 798.786 311.491 800.929 301.116C804.878 281.997 815.153 265.549 822.427 247.727C826.555 237.616 828.852 226.966 831.057 216.31C847.458 252.799 849.809 292.485 835.431 330.22C828.609 348.127 816.906 362.834 811.789 381.567C818.927 373.947 824.702 364.519 830.773 356.022C843.906 337.643 856.754 318.92 870.284 300.844C883.811 282.771 897.972 264.908 912.226 247.401C919.077 238.986 926.738 231.152 933.046 222.312C940.499 211.868 961.32 184.009 963.837 173.456C948.765 188.366 938.812 209.361 926.341 226.514C918.178 237.743 908.235 247.504 900.578 259.115Z"/>
	<path fill="#35364C" d="M731.249 337.665C735.967 343.219 739.037 350.21 742.265 356.712C755.689 383.752 759.5 404.352 760.13 434.352C760.198 437.596 762.804 437.537 762.686 439.833C762.634 440.837 762.125 441.689 761.651 442.55C759.856 442.514 758.587 440.749 757.277 439.54L756.862 438.727C755.19 402.497 743.16 402.92 728.633 375.96C739.499 383.718 749.939 399.72 756.173 411.463C754.804 397.244 751.903 384.014 745.815 371.007C740.619 359.905 734.576 349.536 731.249 337.665Z"/>
	<path fill="#35364C" d="M675.268 464.324C677.431 465.154 678.058 465.68 679.282 467.704C681.888 472.016 683.791 477.742 685.915 482.387C701.583 516.634 695.259 538.636 687.327 573.842L686.534 574.384C684.699 570.786 687.07 563.871 687.866 559.922C693.077 534.096 696.437 516.686 686.253 491.494C682.73 482.777 678.313 474.169 675.532 465.193L675.268 464.324Z"/>
	<path fill="#AC919C" d="M487.985 1264.31C497.026 1267.57 507.634 1268.23 517.018 1271.24C547.093 1280.88 575.989 1302.76 595.921 1326.96C626.251 1363.77 642.41 1413.45 637.69 1461.08C632.775 1510.68 612.129 1554.13 573.137 1585.87C539.897 1612.94 497.327 1625.81 454.656 1621.71C442.267 1620.41 401.877 1611.84 394.226 1602.42C386.723 1602.14 367.389 1585.94 361.501 1580.82C324.741 1548.82 306.48 1502.71 303.091 1454.9C303.951 1456.22 304.814 1457.15 305.99 1458.17C334.086 1482.71 368.103 1498.74 406.138 1496.18C441.031 1493.83 472.589 1477.47 495.409 1451.08C533.909 1406.57 536.967 1342.7 507.344 1292.75C503.867 1286.89 500.123 1281.1 495.918 1275.73C493.648 1272.83 489.861 1269.48 488.135 1266.36C487.968 1266.06 488.016 1264.73 487.985 1264.31Z"/>
	<path fill="#35364C" d="M505.237 1274.67C511.602 1277.76 518.621 1279.71 525.146 1282.53C545.196 1291.18 561.618 1302.72 577.133 1318.02C610.7 1350.85 629.907 1395.63 630.559 1442.57C630.777 1490.17 614.149 1535.76 580.35 1569.76C551.79 1598.49 510.474 1614.73 470.15 1614.74C451.998 1614.75 408.039 1607.65 395.113 1594.77C389.744 1594.67 381.174 1586.96 377.043 1583.8C341.195 1555.92 317.788 1515.04 311.899 1470.02C311.978 1470.15 312.054 1470.29 312.137 1470.42C312.274 1470.64 312.423 1470.86 312.56 1471.08C317.735 1479.41 331.142 1485.75 339.727 1490.01C372.558 1506.32 407.853 1508.23 442.469 1496.47C476.625 1484.88 505.152 1457.66 520.849 1425.5C539.474 1387.26 539.837 1342.67 521.839 1304.14C519.716 1299.57 517.499 1294.91 514.895 1290.6C511.909 1285.66 507.191 1280.73 505.405 1275.24C505.343 1275.05 505.293 1274.86 505.237 1274.67Z"/>
	<path fill="#AC919C" d="M570.754 206.125C559.934 176.595 545.708 147.065 542.341 115.455C539.698 90.6435 545.166 67.8391 561.053 48.3283C577.887 27.6549 600.162 19.6777 625.953 17.0215C621.8 18.9509 617.453 20.3631 613.315 22.3782L613.149 25.8431C615.472 25.0218 617.496 23.7359 619.886 24.4796L619.237 26.2957L620.245 27.9599C620.742 27.5798 621.575 27.3082 622.153 27.0498L623.203 28.5911C623.301 39.0664 619.915 50.6454 617.075 60.655C610.478 83.9025 599.839 105.981 592.625 129.117C584.795 154.233 581.587 182.265 570.754 206.125Z"/>
	<path fill="#35364C" d="M613.149 25.8431C607.326 28.2723 601.76 31.2753 596.532 34.8077C561.232 58.7136 555.478 95.7146 561.101 135.433C561.88 140.937 566.66 148.674 565.705 153.68L564.339 153.35C563.396 152.347 562.54 151.248 561.986 149.977C552.466 128.178 553.975 91.3424 563.304 69.538C572.499 48.0442 591.803 30.9812 613.315 22.3782L613.149 25.8431Z"/>
	<path fill="#35364C" d="M619.237 26.2957L620.245 27.9599C596.344 57.404 574.323 69.6602 574.179 111.499C574.162 116.504 574.43 121.617 575.3 126.552C576.001 130.528 577.774 134.555 577.508 138.608L576.207 139.622L574.768 138.549C570.449 128.574 570.477 112.885 571.452 102.116C572.057 95.4302 573.182 87.8497 575.48 81.5332C583 60.8693 602.73 40.0804 619.237 26.2957Z"/>
	<path fill="#AC919C" d="M766.24 1737.22C775.332 1735.92 784.15 1732.58 793.195 1730.9C804.523 1728.79 816.03 1727.58 827.331 1725.3C855.081 1719.72 902.651 1707.31 920.23 1683.77C920.728 1683.1 921.165 1682.41 921.611 1681.71C921.734 1681.52 921.862 1681.33 921.987 1681.13C919.569 1688.9 915.431 1696.29 911.719 1703.51C896.52 1733.11 876.932 1757.44 846.985 1773.1C811.676 1791.57 770.836 1788.95 733.373 1778.62C727.665 1777.05 721.473 1775.72 715.951 1773.62C715.159 1773.31 714.566 1772.9 713.871 1772.43C716.213 1771.85 718.65 1771.57 721.034 1771.21L721.176 1769.7C726.136 1764.66 755.215 1763.66 764.384 1759.14C769.391 1760.42 832.814 1743.25 841.582 1739.5C843.655 1738.62 844.328 1737.67 845.048 1735.62C841.721 1734.23 777.873 1757.31 768.474 1754.18C768.32 1754.13 768.17 1754.06 768.019 1754C767.538 1754.51 767.051 1754.98 766.475 1755.39C762.628 1758.07 723.418 1765.72 718.47 1764.94C724.696 1762.26 728.162 1753.37 734.407 1749.74C744.064 1744.13 755.97 1742.92 765.662 1737.55C765.857 1737.44 766.048 1737.33 766.24 1737.22Z"/>
	<path fill="#35364C" d="M771.702 1770.01C771.868 1770.08 772.032 1770.16 772.201 1770.23C786.033 1775.73 834.747 1759.26 848.476 1752.87C853.203 1750.67 880.613 1733.9 881.874 1733.85C881.798 1735.16 881.786 1735.18 880.927 1736.18L881.66 1733.75C880.718 1738.31 871.946 1743.02 868.071 1745.57C844.346 1761.13 818.556 1769.59 790.502 1773.36C784.638 1774.14 776.592 1775.5 770.776 1774.33C769.852 1774.14 768.982 1773.86 768.139 1773.44C760.317 1776.9 730.347 1773.34 721.034 1771.21L721.176 1769.7C727.433 1769.98 738.498 1771.77 744.057 1769.26C747.382 1772.41 758.686 1771.33 763.521 1771.21C766.355 1771.13 769.091 1771.24 771.702 1770.01Z"/>
	<path fill="#AC919C" d="M544.551 1687.75C551.176 1690.03 562.73 1688.45 569.912 1688.56C583.058 1688.75 595.495 1691 607.749 1695.81C628.755 1704.05 645.773 1719.56 654.751 1740.41C660.599 1753.99 661.316 1769.29 655.775 1783.08C653.25 1770.25 651.161 1758.25 642.823 1747.61C623.226 1722.59 591.981 1712.52 561.542 1709.1C555.496 1708.42 537.793 1706.13 533.151 1709.82C535.173 1712.72 553.531 1711.66 558.118 1712.14C584.786 1714.89 611.656 1721.98 631.794 1740.63C646.672 1754.4 651.924 1770.13 652.643 1789.89C651.946 1789.44 634.305 1764.12 631.973 1760.7C629.252 1760.24 609.076 1744.17 602.746 1741.04C589.224 1734.34 573.854 1729.62 559.264 1725.88C553.757 1724.47 548.056 1723.73 542.638 1722.02L541.935 1721.79C542.658 1722.37 543.399 1722.92 544.144 1723.47C550.244 1727.99 562.745 1729.91 570.203 1732.28C587.923 1737.93 607.092 1745.49 621.969 1756.87C630.014 1763.02 636.095 1770.46 641.95 1778.65C644.432 1782.12 646.779 1786.15 649.875 1789.1C649.994 1789.21 650.117 1789.32 650.239 1789.43C646.388 1789.19 632.726 1776.57 628.232 1773.56C620.011 1768.06 611.049 1763.42 602.221 1758.97C584.614 1750.07 565.184 1744.01 546.769 1736.95C530.958 1730.89 515.446 1723.75 499.517 1718.07C491.226 1715.11 469.988 1712.77 464.243 1708.36C468.823 1708.92 505.295 1694.88 514.525 1693.06C521.823 1691.63 539.171 1691.41 544.551 1687.75Z"/>
	<path fill="#AC919C" d="M646.738 1584.74L647.242 1585.49C651.993 1592.39 658.324 1598.41 663.688 1604.87C690.888 1637.65 717.524 1669.95 709.659 1715.13C706.722 1732 697.001 1757.22 682.611 1767.67C681.313 1768.61 679.972 1769.03 678.413 1769.38C680.604 1766.63 681.784 1764.2 682.721 1760.81L680.797 1760.52L679.39 1761.31C676.975 1751.91 678.56 1743.16 674.46 1733.65C664.762 1711.17 643.194 1691.97 639.626 1667.07C636.271 1643.67 650.935 1623.59 650.591 1600.9C650.507 1595.35 647.502 1590.26 646.738 1584.74Z"/>
	<path fill="#35364C" d="M689.777 1735.57C689.873 1735.37 689.973 1735.17 690.065 1734.96C696.548 1720.29 691.685 1698.97 685.875 1684.64C678.753 1667.08 653.292 1633.35 657.668 1615.45L658.391 1615.4C666.906 1656.42 702.416 1686.14 694.665 1730.95C693.043 1740.32 689.596 1750.64 684.45 1758.69C683.943 1759.48 683.384 1760.15 682.721 1760.81L680.797 1760.52C683.295 1755.72 686.195 1750.89 687.551 1745.63C685.646 1732.1 682.323 1718.34 676.726 1705.84C663.712 1676.77 644.67 1657.98 654.772 1622.96L655.714 1622.83C657.799 1633.59 653.671 1645.79 657.396 1660.09C660.975 1673.83 670.777 1685.6 676.818 1698.26C682.519 1710.21 685.84 1722.98 689.777 1735.57Z"/>
	<path fill="#AC919C" d="M666.983 1504.83C672.242 1506.86 692.12 1524.99 698.123 1530.01C724.994 1552.48 754.796 1587.11 757.901 1623.61C758.931 1635.71 756.221 1663.45 748.371 1672.74C749.189 1668.37 749.742 1663.96 750.025 1659.52C752.088 1629.83 744.555 1604.86 724.986 1582.41C722.205 1579.21 710.575 1564.74 707.491 1564.52C708.395 1570.65 722.956 1583.69 727.493 1589.84C731.68 1595.47 735.374 1601.45 738.532 1607.72C748.215 1627.13 751.83 1657.67 744.614 1678.31C744.541 1678.52 744.461 1678.72 744.384 1678.93C743.573 1672.75 743.241 1666.46 742.751 1660.24C740.238 1649.84 738.694 1639.27 734.725 1629.25C728.166 1612.68 717.192 1598.07 707.677 1583.15C700.943 1572.59 694.779 1561.11 689.521 1549.73C691.752 1563.5 699.142 1575.98 706.655 1587.51C729.305 1622.3 742.803 1645.57 741.01 1688.65C735.922 1682.76 732.158 1665.25 727.954 1657.11C721.316 1644.26 713.337 1632.25 705.839 1619.9C687.988 1590.5 676.479 1565.06 670.499 1531.01C669.038 1522.69 666.382 1513.22 666.983 1504.83Z"/>
	<path fill="#AC919C" d="M503.649 62.2857C503.595 65.3551 487.716 80.8079 484.502 84.8858C474.667 97.3669 455.259 127.259 450.98 142.123C453.553 140.917 455.733 138.02 457.267 135.683C460.116 131.343 462.284 125.985 464.834 121.374C471.716 108.932 478.65 97.3706 487.391 86.1233C491.084 81.3721 499.609 69.1465 505.712 68.3728L507.095 69.6626C507.448 70.9633 507.616 72.2295 507.565 73.5757C505.755 121.027 455.26 156.222 430.452 192.512C427.409 196.963 424.565 201.588 422.281 206.48C420.061 211.236 418.425 221.894 414.754 225.225L413.676 223.763C409.86 194.477 410.563 161.855 422.871 134.524C436.146 105.048 466.098 76.6689 496.364 65.26C471.766 85.6182 444.45 108.863 436.316 141.261L436.819 142.065C442.869 134.728 446.467 124.217 451.553 115.974C464.543 94.9208 484.02 77.1698 503.649 62.2857Z"/>
	<path fill="#AC919C" d="M925.546 1598.28C926.231 1598.8 926.495 1599.34 926.939 1600.06C925.809 1606.18 921.748 1612.88 918.799 1618.35C901.723 1650.03 875.012 1673.17 840.475 1683.32C827.6 1687.1 794.26 1691.2 782.636 1684.9C783.792 1685.2 784.982 1685.51 786.174 1685.61C791.091 1686.04 870.465 1661.03 875.745 1656.81C876.461 1656.24 876.251 1655.74 876.33 1654.87C872.457 1653.87 869.212 1657.58 865.439 1657.1C865.107 1657.06 864.778 1657 864.448 1656.94C861.341 1659.95 854.901 1661.47 850.808 1662.9C839.45 1666.85 827.751 1669.6 816.284 1673.19C805.041 1676.72 778.331 1688.13 768.51 1688.17L768.043 1686.95C768.829 1681.62 773.987 1675.63 777.508 1671.62C801.935 1643.8 835.454 1641.71 868.559 1631.27C881.814 1627.16 894.443 1621.26 906.095 1613.73C912.665 1609.54 920.589 1604.31 925.546 1598.28Z"/>
	<path fill="#AC919C" d="M713.362 1413.01C724.742 1439.72 748.715 1461.2 765.583 1484.44C786.345 1513.04 792.083 1533.1 786.55 1568.04C783.696 1560.37 783.965 1544.73 780.734 1534.4C775.136 1516.51 763.846 1501.72 751.323 1488.1C746.424 1482.77 741.018 1477.58 736.858 1471.65L736.304 1470.84C740.449 1482.55 760.014 1501.37 767.799 1513.86C780.326 1533.96 786.853 1560.58 781.397 1583.97C778.132 1576.15 777.884 1565.71 775.614 1557.35C770.354 1537.98 752.719 1503.29 736.555 1491.41L735.703 1491.54C739.723 1499.32 746.409 1506.24 751.269 1513.62C759.079 1525.5 764.942 1538.52 770.699 1551.47C768.464 1553.3 768.328 1554.06 768.069 1556.92C767.909 1558.68 767.896 1560.47 767.856 1562.23C767.211 1562.06 766.482 1561.59 766.038 1561.08C759.501 1553.63 754.263 1543.79 748.227 1535.74C714.305 1490.51 707.332 1469.84 713.362 1413.01Z"/>
	<path fill="#AC919C" d="M909.591 1394.1C909.832 1394.37 910.225 1394.75 910.413 1395.09C914.16 1401.79 911.892 1433.98 910.338 1442.5C905.498 1469.02 891.789 1493.83 869.299 1509.28C861.477 1514.65 823.183 1534.19 815.159 1532.72C821.801 1532.3 832.883 1523.02 838.812 1519.11C858.115 1506.38 882.963 1489.35 891.156 1466.85C891.262 1466.56 891.431 1466.29 891.568 1466.01L890.397 1465.32C887.51 1466.88 884.661 1473.69 882.688 1476.72C876.751 1485.82 842.711 1517.39 832.963 1518.89C832.646 1518.94 832.327 1518.97 832.009 1519.01C831.677 1519.48 831.708 1519.46 831.246 1519.96C827.977 1523.55 823.284 1527.07 818.278 1527.08C824.018 1524.46 834.809 1509.58 840.056 1504.5C849.421 1495.45 860.355 1487.54 869.335 1478.2C872.57 1474.84 875.371 1470.75 877.375 1466.55C876.248 1466.19 875.801 1467.22 875.019 1467.99C862.055 1480.71 847.795 1492.39 835.363 1505.55C831.128 1510.03 818.815 1527.54 814.286 1529.41C816.791 1517.57 818.491 1506.67 824.664 1496.02C832.607 1482.31 845.653 1473.27 857.428 1463.13C882.52 1441.53 895.941 1423.9 909.591 1394.1Z"/>
	<path fill="#AC919C" d="M500.138 1762.39C506.158 1764.84 527.832 1763.83 536.377 1765.21C556.301 1768.44 577.176 1779.13 595.271 1788.05C603.277 1792 618.813 1803.62 627.846 1801.84C626.353 1802.48 624.688 1803.28 623.085 1803.56C614.031 1805.15 561.068 1785.46 551.759 1779.52C556.845 1788.1 593.671 1799.59 604.533 1802.94C608.974 1804.31 615.127 1804.84 618.911 1807.49L618.598 1808.52C614.875 1810.94 609.09 1809.92 604.853 1809.41C595.266 1808.28 567.849 1802.94 561.881 1795.37C556.081 1795.99 541.505 1783.06 534.335 1781.34L533.54 1782.21C536.196 1786.77 564.427 1801.31 570.59 1803.97C578.258 1807.28 602.037 1814.39 609.792 1811.29C609.62 1811.4 609.45 1811.52 609.276 1811.62C608.986 1811.8 608.69 1811.96 608.399 1812.14C603.27 1815.21 597.394 1816.39 591.512 1817.13C549.624 1822.4 519.356 1795.01 482.543 1781.62C474.051 1778.54 450.557 1775.44 445.978 1771.9C451.626 1772.67 460.275 1769.42 465.965 1768.29C476.274 1766.25 487.21 1765.96 497.335 1763.7C498.358 1763.48 499.269 1762.96 500.138 1762.39Z"/>
	<path fill="#AC919C" d="M398.213 62.5733C414.142 61.7969 427.445 65.5799 441.975 71.8041C432.027 72.1357 422.08 70.8943 412.072 71.485C386.996 72.965 352.909 83.5147 330.548 95.4999C342.199 93.6739 353.034 89.2923 364.103 85.4007C387.676 77.1124 409.782 72.4794 434.826 74.2753C416.375 83.5208 390.214 95.3252 370.238 99.6838C362.242 101.429 347.41 99.7938 341.569 102.34L341.959 102.938L343.088 102.15L342.493 103.044C353.63 104.158 365.606 104.02 376.452 101.13C397.114 95.5948 415.465 84.9215 435.277 77.2322C403.915 102.604 371.734 123.378 329.721 119.296C311.534 117.529 293.882 113.949 275.528 113.261C288.186 108.138 300.768 102.919 312.944 96.7177C340.371 82.7491 366.877 65.3778 398.213 62.5733Z"/>
	<path fill="#AC919C" d="M196.612 1655.23C199.309 1660.54 192.33 1688.74 190.451 1695.26C179.811 1732.18 167.71 1751.66 143.711 1781.29C139.742 1786.19 134.291 1794.8 128.82 1797.81C132.389 1791.28 133.294 1782.88 136.88 1776.01C141.882 1766.43 165.035 1736.87 165.209 1728.73L164.216 1728.67C161.868 1730.69 135.999 1771.49 133.898 1776.09C130.573 1783.37 128.238 1797.52 123.554 1803.06C123.45 1803.19 123.337 1803.3 123.228 1803.42C123.35 1796.51 124.464 1789.68 125.42 1782.85C129.525 1773.14 132.78 1763.43 137.978 1754.12C142.654 1745.75 151.937 1735.45 154.753 1726.8C149.78 1727.73 146.478 1735.49 144.037 1739.44C135.973 1752.49 127.444 1765.46 123.485 1780.45C120.861 1790.39 123.843 1807.17 117.747 1815.23C115.154 1798.56 115.238 1782.48 118.813 1765.95C126.659 1729.65 146.335 1713.58 170.544 1687.71C180.171 1677.43 188.44 1666.66 196.612 1655.23Z"/>
	<path fill="#AC919C" d="M150.373 1552.15C154.186 1558.57 154.578 1572.32 155.171 1579.94C156.888 1601.97 152.968 1618.56 146.086 1639.34C140.862 1655.12 136.068 1667.84 125.112 1680.55C120.74 1685.62 111.268 1696.46 104.35 1696.98C104.706 1696.72 105.312 1696.33 105.649 1696C108.723 1692.98 111.337 1686.98 113.534 1683.21C124.045 1665.21 135.765 1646.24 136.531 1624.87C129.357 1648.89 119.586 1667.22 107.041 1688.65C104.725 1692.6 103.32 1697.06 100.593 1700.75C99.8134 1698.93 100.213 1697.46 100.399 1695.54C102.517 1686.67 104.9 1678.25 108.258 1669.75C110.947 1662.94 126.899 1634.46 125.436 1629.99C117.366 1639.63 103.834 1670.62 100.722 1683.02C99.0055 1689.86 98.8228 1696.75 97.3826 1703.58L97.2467 1704.2C96.9056 1703.37 96.5867 1702.54 96.2903 1701.7C89.0696 1681.18 91.2064 1655.04 103.183 1636.76C109.913 1626.49 118.673 1617.74 124.74 1606.96C135.351 1588.11 141.384 1571.09 150.373 1552.15Z"/>
	<path fill="#AC919C" d="M721.681 1320.84C737.015 1328.62 753.07 1342.77 764.872 1355.22C788.332 1379.96 798.894 1405.34 798.057 1439.28C795.324 1435.64 793.58 1428.41 791.844 1424.1C787.47 1413.22 775.379 1384.18 767.558 1376.27C766.351 1375.05 766.228 1375 764.536 1374.97C764.971 1379.02 773.817 1391 776.09 1395.72C780.993 1405.89 785.819 1416.18 789.825 1426.75C792.78 1434.54 795.044 1442.69 798.464 1450.28C795.242 1448.76 793.932 1445.57 792.448 1442.55C783.635 1436.69 764.832 1401.02 759.012 1389.76C764.904 1418.42 788.865 1438.75 801.356 1464.43C800.248 1464.39 799.169 1464.34 798.189 1463.74C795.868 1462.32 776.842 1445.45 773.077 1442.18C745.305 1418.05 748.545 1386.1 736.835 1354.3C733.385 1344.93 722.31 1329.46 721.681 1320.84Z"/>
	<path fill="#AC919C" d="M860.613 1296.29L861.863 1297.91C861.6 1307.15 860.37 1316.55 860.624 1325.77C861.43 1354.99 867.867 1386.44 848.146 1411.32C842.822 1418.04 832.814 1429.42 824.121 1430.41C829.219 1428.73 835.87 1419.42 839.01 1414.96C852.062 1396.41 858.172 1371.11 854.237 1348.58C850.54 1355.02 851.661 1372.69 850.248 1380.97C848.439 1391.57 841.378 1413.17 832.257 1419.07C831.988 1419.25 831.708 1419.41 831.434 1419.57C829.102 1423.81 827.152 1427.36 822.268 1428.81C826.02 1424.57 828.777 1417.14 830.778 1411.85C833.416 1404.87 845.114 1355.1 843.768 1352.09C836.548 1357.18 833.816 1410.87 820.731 1426.54C820.623 1426.67 820.51 1426.79 820.4 1426.92C815.771 1375.27 831.692 1338.17 860.613 1296.29Z"/>
	<path fill="#AC919C" d="M94.2988 1474.92L95.4772 1476.55C94.9607 1484.29 94.0055 1492.43 94.3582 1500.17C94.9143 1512.36 97.65 1524.61 98.772 1536.8C100.667 1557.37 95.3479 1583.66 86.1023 1602.17C84.1727 1606.03 81.0059 1612.41 76.6641 1613.88C88.192 1589.33 95.2768 1548.71 90.2047 1522.01L89.6209 1522.08C88.4516 1549.29 88.893 1580.79 77.1682 1606.06C77.0822 1606.25 76.9904 1606.43 76.9015 1606.61C76.4666 1608.98 76.0311 1610.85 74.8917 1613.01C70.6738 1604.46 79.5527 1545.74 78.9199 1531.08C72.587 1536.8 73.0962 1603.84 70.2934 1616.84L70.124 1617.6C66.31 1611.81 64.7707 1600.91 63.7261 1593.96C61.6931 1580.45 61.9375 1566.97 63.1417 1553.39C66.0879 1520.17 74.4178 1501.73 94.2988 1474.92Z"/>
	<path fill="#AC919C" d="M407.937 1311.95C412.277 1314.8 411.719 1331.74 413.233 1337.78C415.994 1348.78 423.013 1359.01 432.937 1364.71C442.312 1370.1 458.661 1371.9 469.134 1369.2C461.063 1378.62 441.43 1373.05 427.433 1384.42C415.266 1394.31 413.061 1406.94 412.096 1421.68C411.94 1424.06 412.223 1428.05 411.543 1430.21C411.33 1430.88 410.791 1430.94 410.222 1431.22L409.859 1431.09C406.847 1427.17 408.076 1413.82 406.815 1408.29C402.967 1391.41 390.588 1378.12 372.896 1376.19C367.357 1375.58 357.161 1376.47 352.601 1373.49L352.721 1372.57C362.506 1367.68 375.534 1371.42 386.541 1364.3C411.513 1348.15 402.916 1334.79 407.937 1311.95Z"/>
	<path fill="#AC919C" d="M487.321 204.738C487.923 204.995 488.587 205.14 489.127 205.51C490.768 206.633 491.053 231.467 496.108 239.651C506.796 256.954 522.975 249.354 530.47 256.444C525.469 259.716 512.543 257.748 504.806 262.118C497.894 266.021 491.801 276.551 490.694 284.378C489.84 290.426 490.295 296.607 488.726 302.549C484.506 299.316 485.421 277.482 480.954 269.797C473.709 257.33 457.241 260.607 445.245 257.375C446.538 253.403 469.486 254.59 478.777 244.515C488.361 234.122 487.736 217.915 487.321 204.738Z"/>
	<path fill="#AC919C" d="M689.195 1130.91C692.174 1132.59 692.997 1151.21 694.498 1155.46C696.865 1162.16 701.248 1167.93 707.767 1171C715.28 1174.54 727.401 1175.11 735.179 1172.29C728.141 1180.85 710.316 1177.99 700.635 1185.34C690.764 1192.83 691.983 1206.81 690.484 1217.89L689.334 1218.11C688.231 1212.73 688.339 1207.26 686.754 1201.91C679.27 1176.65 671.265 1182.13 650.678 1176.98C647.3 1176.14 644.649 1175.56 641.998 1173.17C641.814 1173 641.633 1172.83 641.45 1172.66C643.052 1173.33 644.677 1173.91 646.421 1174.07C655.793 1174.92 671.048 1172.61 678.236 1166.46C688.248 1157.91 688.152 1143.01 689.195 1130.91Z"/>
	<path fill="#AC919C" d="M185.471 113.986C186.419 114.436 187.543 115.12 188.014 116.115C191.373 123.224 186.687 137.467 194.997 148.246C201.079 156.135 212.41 155.999 221.373 157.117C224.059 157.451 227.3 157.334 228.99 159.492C225.56 163.022 204.548 160.027 195.045 170.178C186.724 179.068 191.68 199.101 186.722 204.188L185.433 203.3C184.478 193.273 184.19 180.396 178.395 171.855C170.248 159.847 152.097 161.094 139.324 158.645C149.888 157.319 165.052 158.231 174.036 151.937C184.503 144.604 183.296 125.974 185.331 114.741L185.471 113.986Z"/>
	<path fill="#AC919C" d="M371.922 1662.5C375.677 1668.15 373.645 1680.98 377.478 1688.71C384.925 1703.73 396.962 1702.32 410.763 1706.8C410.573 1707.1 393.457 1709.54 388.665 1712.1C369.594 1722.29 377.399 1738.29 372.998 1753.06L371.645 1752.98C369.208 1748.57 370.589 1737.91 369.646 1732.53C364.371 1702.46 341.65 1714.14 327.439 1703.68C327.205 1703.5 326.978 1703.32 326.748 1703.15C327.007 1703.22 327.265 1703.3 327.525 1703.38C335.482 1705.68 350.117 1703.44 357.302 1699.31C370.59 1691.66 368.163 1675.64 371.735 1663.12C371.794 1662.91 371.86 1662.7 371.922 1662.5Z"/>
	<path fill="#AC919C" d="M910.406 37.9945C916.495 44.6123 910.894 55.6521 916.198 62.8454C923.442 72.6702 939.485 74.0326 950.638 75.6135C940.774 78.3666 928.475 77.3524 920.301 84.4562C912.071 91.6085 912.349 105.61 911.563 115.565C907.893 111.741 908.49 99.3413 907.022 93.8549C906.178 90.7029 904.607 87.8004 903.042 84.9563C894.184 78.6305 882.725 77.4144 872.277 75.5449C880.554 74.366 891.405 73.4293 898.699 69.1217C908.698 63.2166 907.524 48.2277 910.24 38.5525C910.292 38.3657 910.35 38.1805 910.406 37.9945Z"/>
	<path fill="#AC919C" d="M942.815 1253C952.477 1250.91 962.015 1257.01 964.161 1266.66C966.308 1276.31 960.256 1285.88 950.618 1288.08C945.406 1289.27 939.935 1288.07 935.691 1284.82C931.448 1281.57 928.872 1276.6 928.665 1271.26C928.327 1262.55 934.294 1254.85 942.815 1253Z"/>
	<path fill="#AC919C" d="M694.506 165.901C703.952 163.146 713.844 168.568 716.599 178.012C719.354 187.455 713.929 197.344 704.483 200.097C695.038 202.85 685.15 197.428 682.395 187.986C679.64 178.544 685.062 168.657 694.506 165.901Z"/>
	<path fill="#AC919C" d="M236.9 1526.16C244.077 1526.52 249.596 1526.54 255.379 1531.39C258.719 1534.17 260.754 1538.22 261 1542.56C261.313 1547.59 259.361 1552.93 256.002 1556.67C254.025 1558.87 252.23 1559.86 249.334 1560.01C246.31 1562.14 243.206 1562.35 239.633 1562C236.044 1561.66 232.99 1560 230.71 1557.2C227.455 1553.2 226.084 1547.61 226.595 1542.53C227.382 1534.7 230.949 1530.88 236.9 1526.16Z"/>
	<path fill="#AC919C" d="M544.163 1016.39C550.334 1014.54 557.025 1016.19 561.626 1020.7C566.226 1025.21 568.006 1031.87 566.27 1038.08C564.535 1044.28 559.561 1049.05 553.287 1050.52C543.989 1052.7 534.639 1047.11 532.172 1037.88C529.706 1028.66 535.016 1019.14 544.163 1016.39Z"/>
	<path fill="#AC919C" d="M155.742 1391.26C156.636 1391.73 156.256 1391.6 157.228 1391.82C157.72 1391.93 158.216 1392.03 158.708 1392.14C163.812 1393.29 167.934 1394.14 170.877 1398.96C173.788 1403.73 174.249 1409.99 172.907 1415.33C171.939 1419.19 169.751 1422.91 166.203 1424.89C164.094 1426.06 161.936 1426.65 159.556 1426.02C158.887 1426.3 158.217 1426.57 157.528 1426.79C154.492 1427.78 151.22 1426.94 148.461 1425.49C144.711 1423.53 142.174 1419.85 140.958 1415.87C139.397 1410.81 139.928 1405.34 142.431 1400.68C145.619 1394.8 149.546 1393.15 155.742 1391.26Z"/>
	<path fill="#AC919C" d="M582.195 830.451C591.528 829.434 599.937 836.126 601.038 845.447C602.139 854.768 595.521 863.235 586.208 864.42C576.776 865.62 568.175 858.9 567.06 849.46C565.944 840.02 572.743 831.481 582.195 830.451Z"/>
	<path fill="#B993A0" d="M767.856 1562.23C767.896 1560.47 767.909 1558.68 768.069 1556.92C768.328 1554.06 768.464 1553.3 770.699 1551.47C773.648 1560.25 776.445 1568.91 777.619 1578.12C773.789 1574.82 769.264 1567.05 767.856 1562.23Z"/>
</svg>
