<?xml version="1.0" encoding="utf-8" ?>
<svg xmlns="http://www.w3.org/2000/svg" xmlns:xlink="http://www.w3.org/1999/xlink" width="1024" height="1024">
	<path fill="#F3B391" transform="scale(2 2)" d="M392.048 85.491C395.43 78.3835 397.522 64.5028 404.724 62.2783C410.408 62.0302 415.916 80.2758 418.009 85.491C425.492 86.7998 436.863 86.3514 443.183 88.002C457.523 91.7479 429.118 110.124 426.496 112.467C433.877 139.346 438.118 150.066 407.312 128.501L405.631 127.595C399.326 130.778 393.328 134.795 387.196 138.319C370.926 147.669 381.592 117.718 383.394 112.467C374.869 102.34 348.112 90.2267 378.711 86.9974L392.048 85.491ZM404.724 79.4292C396.706 97.3019 397.99 94.118 379.473 96.3643C382.24 98.964 390.685 105.355 392.182 107.545C395.355 112.189 390.545 121.009 389.579 125.879C393.443 123.369 401.054 117.638 405.631 117.614C411.018 119.613 415.376 122.964 420.244 125.879C414.652 105.27 416.342 109.206 430.875 96.3643C426.537 95.766 413.894 95.3816 411.325 91.9931C408.999 88.9261 407.27 81.6522 404.724 79.4292Z"/>
	<defs>
		<linearGradient id="gradient_0" gradientUnits="userSpaceOnUse" x1="299.06973" y1="115.10363" x2="240.50351" y2="261.25681">
			<stop offset="0" stop-color="#F6D4BA"/>
			<stop offset="1" stop-color="#FEFADC"/>
		</linearGradient>
	</defs>
	<path fill="url(#gradient_0)" transform="scale(2 2)" d="M189.273 218.541L189.268 171.66C189.27 163.237 188.48 149.314 190.286 141.561C194.295 124.349 215.032 118.109 229.261 128.501C228.055 102.447 253.781 89.0467 270.911 105.211C279.148 112.983 278.225 118.458 279.034 128.501C294.317 118.291 314.521 123.898 318.156 142.592C319.896 151.546 318.602 169.763 318.743 179.552C350.82 161.402 365.018 201.363 356.136 205.844C349.606 209.14 349.421 200.725 349.073 197.508C347.452 182.534 325.78 179.233 319.978 193.393C317.376 199.745 318.731 208.122 318.744 214.808L318.733 244.106C318.749 247.526 319.543 252.042 318.635 255.286C317.585 259.042 311.181 259.531 309.789 255.695C308.524 252.21 309.202 226.906 309.202 221.403L309.197 163.732C309.198 159.185 309.812 146.944 308.735 143.115C305.131 130.294 286.464 129.137 280.712 141.124C278.157 146.449 279.011 154.136 279.018 159.869L279.026 234.08C279.025 238.289 279.605 251.337 278.773 254.649C277.693 258.946 271.67 259.902 270.167 255.602C268.979 252.202 269.562 224.429 269.561 218.395L269.559 144.043C269.56 138.609 270.206 123.003 268.977 118.628C265.348 105.707 246.518 103.94 240.334 116.018C237.518 121.517 238.603 129.128 238.609 135.082L238.623 247.69C238.62 250.012 238.962 253.113 238.436 255.354C237.385 259.834 230.996 260.208 229.76 255.722C228.671 251.767 229.252 239.737 229.254 234.886L229.267 155.685C229.265 151.889 229.668 147.489 228.739 143.793C226.712 135.728 218.036 130.991 210.106 133.03C196.549 136.517 198.888 151.958 198.899 162.623L198.911 273.431L198.652 273.001C199.028 268.479 198.923 263.918 198.925 259.383C198.93 241.445 198.833 223.544 198.425 205.613C198.087 190.751 197.948 173.447 198.833 158.778C199.125 153.923 197.922 149.387 198.75 144.383C199.434 140.246 201.598 139.238 202.274 136.424C203.696 130.499 202.095 124.999 196.37 131.606C189.743 139.253 190.029 144.598 190.015 153.822L189.773 207.91C189.778 213.396 189.181 219.049 189.788 224.508L189.527 224.449L189.616 225.239C189.091 224.635 189.39 219.951 189.295 218.794L189.273 218.541Z"/>
	<path fill="#E2BE99" transform="scale(2 2)" d="M189.273 218.541L189.295 218.794C189.39 219.951 189.091 224.635 189.616 225.239L189.527 224.449L189.788 224.508C189.181 219.049 189.778 213.396 189.773 207.91L190.015 153.822C190.029 144.598 189.743 139.253 196.37 131.606C202.095 124.999 203.696 130.499 202.274 136.424C201.598 139.238 199.434 140.246 198.75 144.383C197.922 149.387 199.125 153.923 198.833 158.778C197.948 173.447 198.087 190.751 198.425 205.613C198.833 223.544 198.93 241.445 198.925 259.383C198.923 263.918 199.028 268.479 198.652 273.001L198.911 273.431C199.096 284.616 195.517 299.204 180.883 296.797C166.226 294.386 158.704 258.895 127.69 253.624C120.638 252.426 110.829 255.558 110.038 263.897C109.736 267.08 113.105 271.446 114.814 273.996L139.459 310.996C149.075 325.259 158.883 339.452 167.998 354.041C174.407 364.298 177.872 377.317 185.9 386.048C198.984 400.278 207.887 399.505 224.343 400.464C228.504 400.706 231.548 406.027 227.63 408.857C224.266 411.287 211.476 409.693 207.258 409.016L207.273 440.492C207.275 447.897 210.143 459.028 202.6 461.44C194.779 459.074 197.761 448.07 197.763 440.732L197.775 405.532C175.175 394.852 174.312 386.1 163.74 365.578C158.869 356.12 152.246 347.311 146.406 338.42L115.637 292.09C106.909 278.865 91.0732 264.097 107.845 249.684C128.973 231.526 158.147 257.534 170.916 274.21C173.997 278.234 180.647 292.251 187.119 285.96C190.133 283.031 189.299 277.886 189.264 274.11L189.273 218.541Z"/>
	<path fill="#F3B391" transform="scale(2 2)" d="M355.246 229.859C347.098 230.592 346.878 216.507 352.852 214.275C360.159 213.874 360.896 227.025 355.246 229.859Z"/>
	<path fill="#E2BE99" transform="scale(2 2)" d="M318.218 400.587C322.158 396.975 325.621 392.177 328.821 387.911C347.799 362.611 348.188 343.17 348.184 313.764L348.211 283.336C348.198 277.853 348.015 244.511 349.829 240.767C350.496 239.39 351.465 238.987 352.852 238.512C360.355 238.046 357.91 251.094 357.9 256.946L357.903 317.133C357.91 344.764 355.87 365.269 339.696 389.386C335.816 395.172 330.942 400.012 326.761 405.532L326.772 438.255C326.771 443.205 329.619 470.522 317.099 458.548C316.875 456.324 317.067 453.95 317.073 451.711L317.099 437.375L317.099 409.995L301.938 410.012C298.98 410.012 292.275 410.858 289.87 408.67C287.256 406.291 288.566 401.567 292.012 400.894C295.223 400.267 298.924 400.562 302.199 400.564L318.218 400.587Z"/>
	<path fill="#E2BE99" transform="scale(2 2)" d="M287.302 314.861C285.051 315.126 283.689 314.706 282.152 312.876C273.429 302.493 267.264 295.558 254.677 290.062C250.254 288.131 239.159 284.094 248.783 278.763C259.917 277.996 279.266 294.859 285.988 302.881C289.113 306.611 294.147 311.441 287.302 314.861Z"/>
	<path fill="#E2BE99" transform="scale(2 2)" d="M261.865 356.976C256.005 357.231 256.033 350.347 254.33 346.195C247.554 329.68 232.527 314.85 214.747 310.753C212.768 310.298 210.485 310.12 208.634 309.279C204.185 307.259 204.807 301.456 209.23 300.064C232.616 299.428 258.864 327.853 265.179 348.923C266.289 352.63 265.921 355.808 261.865 356.976Z"/>
	<path fill="#E2BE99" transform="scale(2 2)" d="M93.2211 407.246C94.8524 402.442 101.699 383.817 105.744 382.028C113.393 381.436 118.15 400.433 120.946 407.246C126.277 407.346 146.392 408.206 148.497 410.846C153.529 417.153 134.889 429.451 129.592 433.118C130.968 438.624 134.126 452.668 134.39 458.04C134.56 461.487 132.722 462.541 129.592 463.315C123.921 461.689 112.415 452.955 107.116 449.255C102.814 448.404 83.1956 472.875 79.2553 458.548C80.6886 450.069 82.9228 441.489 84.9176 433.118C81.5026 430.969 64.2311 418.117 64.3167 414.313C64.474 407.327 87.7596 407.121 93.2211 407.246ZM107.116 398.11C105.151 402.424 101.783 414.623 98.5934 415.902C95.0128 417.339 83.3211 417.356 79.2553 417.011L79.5772 417.315C82.7686 420.301 94.5125 427.211 94.819 431.322C95.0199 434.017 91.3524 445.89 90.5304 449.255C94.0078 446.92 104.067 439.51 107.116 438.676C110.586 439.063 119.785 447.032 123.645 449.255C117.218 422.486 117.816 433.386 134.546 417.011C130.587 417.331 117.998 417.879 114.705 415.199C111.609 412.68 109.542 399.921 107.116 398.11Z"/>
</svg>
